<svg width="16" height="17" viewBox="0 0 16 17" fill="none" xmlns="http://www.w3.org/2000/svg">
<path fill-rule="evenodd" clip-rule="evenodd" d="M3 7.10151C3.0096 4.27445 5.30917 1.99046 8.13623 2.00003C10.9633 2.00967 13.2473 4.30923 13.2377 7.13629V7.19426C13.2029 9.03194 12.1768 10.7305 10.9188 12.058C10.1994 12.8051 9.396 13.4665 8.52464 14.029C8.29164 14.2306 7.94604 14.2306 7.71304 14.029C6.41404 13.1835 5.27396 12.1161 4.34493 10.8754C3.5169 9.79357 3.04678 8.48046 3 7.1189V7.10151Z" stroke="white" stroke-width="1.5" stroke-linecap="round" stroke-linejoin="round"/>
<path d="M7.94487 9.16671C8.85098 9.16671 9.58553 8.43216 9.58553 7.52604C9.58553 6.61993 8.85098 5.88538 7.94487 5.88538C7.03875 5.88538 6.3042 6.61993 6.3042 7.52604C6.3042 8.43216 7.03875 9.16671 7.94487 9.16671Z" stroke="white" stroke-width="1.5" stroke-linecap="round" stroke-linejoin="round"/>
</svg>
