<svg width="166" height="105" viewBox="0 0 166 105" fill="none" xmlns="http://www.w3.org/2000/svg">
<path d="M75.7479 8.7695C78.2538 6.23569 84.1374 6.23569 86.6433 8.7695C88.7436 10.8932 93.3967 11.3124 96.3671 9.64536C99.9108 7.65651 105.556 8.69504 106.821 11.5685C107.881 13.977 112.157 15.2004 115.757 14.1252C120.052 12.8424 125.002 14.8353 124.922 17.8156C124.857 20.3136 128.409 22.2423 132.346 21.846C137.045 21.3732 140.898 24.159 139.482 27.0048C138.296 29.39 140.837 31.8676 144.793 32.1823C149.513 32.5578 151.957 35.9109 149.319 38.3915C147.108 40.4707 148.433 43.2966 152.087 44.2968C156.447 45.4902 157.284 49.1388 153.638 51.0533C150.581 52.658 150.581 55.6032 153.638 57.2079C157.284 59.1225 156.447 62.771 152.087 63.9644C148.433 64.9646 147.108 67.7906 149.319 69.8697C151.957 72.3503 149.513 75.7034 144.793 76.0788C140.837 76.3934 138.296 78.8713 139.482 81.2565C140.898 84.1022 137.045 86.8883 132.346 86.4151C128.409 86.0187 124.857 87.9479 124.922 90.4454C125.002 93.426 120.052 95.4186 115.757 94.1359C112.157 93.0605 107.881 94.2844 106.821 96.693C105.556 99.5665 99.9108 100.605 96.3671 98.6155C93.3967 96.9485 88.7436 97.3682 86.6433 99.4919C84.1374 102.026 78.2538 102.026 75.7479 99.4919C73.6477 97.3682 68.9945 96.9485 66.0242 98.6155C62.4804 100.605 56.8351 99.5665 55.5703 96.693C54.51 94.2844 50.2339 93.0605 46.6343 94.1359C42.3397 95.4186 37.39 93.426 37.4686 90.4454C37.5344 87.9479 33.9816 86.0187 30.0443 86.4151C25.3468 86.8883 21.4938 84.1022 22.9094 81.2565C24.0958 78.8713 21.5542 76.3934 17.5983 76.0788C12.8784 75.7034 10.4343 72.3503 13.0722 69.8697C15.2832 67.7906 13.9588 64.9646 10.3045 63.9644C5.94476 62.771 5.10743 59.1225 8.75397 57.2079C11.8104 55.6032 11.8104 52.658 8.75397 51.0533C5.10743 49.1388 5.94476 45.4902 10.3045 44.2968C13.9588 43.2966 15.2832 40.4707 13.0722 38.3915C10.4343 35.9109 12.8784 32.5578 17.5983 32.1823C21.5542 31.8676 24.0958 29.39 22.9094 27.0048C21.4938 24.159 25.3468 21.3732 30.0443 21.846C33.9816 22.2423 37.5344 20.3136 37.4686 17.8156C37.39 14.8353 42.3397 12.8424 46.6343 14.1252C50.2339 15.2004 54.51 13.977 55.5703 11.5685C56.8351 8.69504 62.4804 7.65651 66.0242 9.64536C68.9945 11.3124 73.6477 10.8932 75.7479 8.7695Z" fill="#BBBBBB"/>
<path d="M79.3567 6.50826C81.8625 3.97446 87.7461 3.97446 90.252 6.50826C92.3523 8.63198 97.0054 9.05115 99.9758 7.38415C103.52 5.39528 109.165 6.4338 110.43 9.30723C111.49 11.7157 115.766 12.9392 119.366 11.864C123.66 10.5812 128.61 12.574 128.531 15.5544C128.466 18.0524 132.018 19.9811 135.955 19.5848C140.654 19.1119 144.507 21.8978 143.091 24.7435C141.905 27.1288 144.445 29.6064 148.402 29.9211C153.122 30.2966 155.566 33.6496 152.928 36.1303C150.717 38.2094 152.042 41.0354 155.696 42.0356C160.055 43.2289 160.892 46.8775 157.246 48.792C154.19 50.3968 154.19 53.342 157.246 54.9467C160.892 56.8612 160.055 60.5098 155.696 61.7032C152.042 62.7034 150.717 65.5293 152.928 67.6085C155.566 70.0891 153.122 73.4421 148.402 73.8176C144.445 74.1324 141.905 76.6101 143.091 78.9953C144.507 81.841 140.654 84.6271 135.955 84.1538C132.018 83.7574 128.466 85.6867 128.531 88.1842C128.61 91.1648 123.66 93.1574 119.366 91.8747C115.766 90.7993 111.49 92.0232 110.43 94.4318C109.165 97.3053 103.52 98.3438 99.9758 96.3542C97.0054 94.6872 92.3523 95.107 90.252 97.2307C87.7461 99.7644 81.8625 99.7644 79.3567 97.2307C77.2564 95.107 72.6032 94.6872 69.6329 96.3542C66.0892 98.3438 60.4438 97.3053 59.179 94.4318C58.1188 92.0232 53.8426 90.7993 50.243 91.8747C45.9484 93.1574 40.9987 91.1648 41.0773 88.1842C41.1431 85.6867 37.5903 83.7574 33.653 84.1538C28.9556 84.6271 25.1026 81.841 26.5181 78.9953C27.7045 76.6101 25.1629 74.1324 21.207 73.8176C16.4872 73.4421 14.043 70.0891 16.6809 67.6085C18.8919 65.5293 17.5675 62.7034 13.9132 61.7032C9.55347 60.5098 8.71614 56.8612 12.3627 54.9467C15.4191 53.342 15.4191 50.3968 12.3627 48.7921C8.71614 46.8775 9.55347 43.2289 13.9132 42.0356C17.5675 41.0354 18.8919 38.2094 16.6809 36.1303C14.043 33.6496 16.4872 30.2966 21.207 29.9211C25.1629 29.6064 27.7045 27.1288 26.5181 24.7435C25.1026 21.8978 28.9556 19.1119 33.653 19.5848C37.5903 19.9811 41.1431 18.0524 41.0773 15.5544C40.9987 12.574 45.9484 10.5812 50.243 11.864C53.8426 12.9392 58.1188 11.7157 59.179 9.30723C60.4438 6.43379 66.0892 5.39528 69.6329 7.38415C72.6032 9.05115 77.2564 8.63198 79.3567 6.50826Z" fill="#292E36"/>
<path d="M74.22 53.46C74.22 56.1 73.34 58.36 71.58 60.24C69.82 62.08 67.36 63.2 64.2 63.6V69.48C64.2 69.76 64 69.9 63.6 69.9C63.16 69.9 62.94 69.76 62.94 69.48V63.72H61.86C58.78 63.72 55.96 63.02 53.4 61.62C53.2 61.5 53.06 61.36 52.98 61.2C52.94 61.04 52.9 60.8 52.86 60.48L52.08 52.32C52.04 52.16 52.12 52.06 52.32 52.02C52.56 51.98 52.7 52.04 52.74 52.2C53.38 55.04 54.54 57.5 56.22 59.58C57.9 61.62 60.14 62.68 62.94 62.76V45.66L61.62 44.88C59.7 43.72 58.18 42.72 57.06 41.88C55.98 41.04 55.06 39.98 54.3 38.7C53.54 37.42 53.16 35.92 53.16 34.2C53.16 31.48 54.1 29.32 55.98 27.72C57.9 26.12 60.22 25.18 62.94 24.9V19.86C62.94 19.7 63 19.58 63.12 19.5C63.24 19.42 63.4 19.38 63.6 19.38C63.76 19.38 63.9 19.42 64.02 19.5C64.14 19.58 64.2 19.7 64.2 19.86V24.84H64.32C66.68 24.84 69.02 25.32 71.34 26.28C71.94 26.48 72.24 26.82 72.24 27.3L72.66 34.2C72.66 34.36 72.56 34.44 72.36 34.44C72.16 34.44 72.04 34.36 72 34.2C71.68 32.24 70.88 30.4 69.6 28.68C68.36 26.96 66.56 26 64.2 25.8V41.88C64.28 41.96 64.6 42.16 65.16 42.48C67.24 43.72 68.86 44.76 70.02 45.6C71.18 46.44 72.16 47.52 72.96 48.84C73.8 50.12 74.22 51.66 74.22 53.46ZM56.7 32.52C56.7 34.4 57.24 36 58.32 37.32C59.4 38.6 60.94 39.86 62.94 41.1V25.74C60.86 25.82 59.3 26.52 58.26 27.84C57.22 29.12 56.7 30.68 56.7 32.52ZM64.2 62.7C66 62.54 67.48 61.92 68.64 60.84C69.8 59.72 70.38 58.06 70.38 55.86C70.38 53.7 69.84 51.92 68.76 50.52C67.68 49.08 66.16 47.72 64.2 46.44V62.7ZM90.2628 45.72C88.3028 45.72 86.6228 45.26 85.2228 44.34C83.8228 43.42 82.7428 42.2 81.9828 40.68C81.2628 39.12 80.9028 37.42 80.9028 35.58C80.9028 33.46 81.4028 31.6 82.4028 30C83.4028 28.36 84.7828 27.1 86.5428 26.22C88.3028 25.3 90.2828 24.84 92.4828 24.84C96.2428 24.84 99.0828 26.14 101.003 28.74C102.923 31.34 103.883 34.82 103.883 39.18C103.883 43.1 103.103 46.92 101.543 50.64C100.023 54.32 97.8028 57.36 94.8828 59.76C91.9628 62.16 88.5628 63.48 84.6828 63.72C84.5628 63.76 84.4628 63.66 84.3828 63.42C84.3428 63.22 84.4028 63.1 84.5628 63.06C87.8428 62.42 90.6228 60.94 92.9028 58.62C95.2228 56.3 96.9628 53.52 98.1228 50.28C99.2828 47 99.8628 43.62 99.8628 40.14C99.8628 36.14 99.1228 32.78 97.6428 30.06C96.1628 27.3 93.9228 25.92 90.9228 25.92C86.9228 25.92 84.9228 28.6 84.9228 33.96C84.9228 37.08 85.5828 39.56 86.9028 41.4C88.2228 43.24 89.9628 44.16 92.1228 44.16C92.8828 44.16 93.6028 44.02 94.2828 43.74C95.0028 43.42 95.8028 42.88 96.6828 42.12C96.7228 42.08 96.7828 42.06 96.8628 42.06C96.9828 42.06 97.0828 42.12 97.1628 42.24C97.2828 42.36 97.3228 42.46 97.2828 42.54C95.6028 44.66 93.2628 45.72 90.2628 45.72Z" fill="white"/>
<path d="M53.885 6.585C53.885 5.835 54.025 5.13 54.305 4.47C54.595 3.8 54.995 3.21 55.505 2.7C56.015 2.18 56.6 1.775 57.26 1.485C57.93 1.185 58.65 1.035 59.42 1.035C60.18 1.035 60.89 1.185 61.55 1.485C62.22 1.775 62.81 2.18 63.32 2.7C63.84 3.21 64.245 3.8 64.535 4.47C64.825 5.13 64.97 5.835 64.97 6.585C64.97 7.355 64.825 8.075 64.535 8.745C64.245 9.415 63.84 10.005 63.32 10.515C62.81 11.015 62.22 11.41 61.55 11.7C60.89 11.98 60.18 12.12 59.42 12.12C58.65 12.12 57.93 11.98 57.26 11.7C56.6 11.42 56.015 11.03 55.505 10.53C54.995 10.03 54.595 9.445 54.305 8.775C54.025 8.105 53.885 7.375 53.885 6.585ZM55.385 6.6C55.385 7.17 55.49 7.705 55.7 8.205C55.91 8.695 56.2 9.13 56.57 9.51C56.94 9.89 57.37 10.19 57.86 10.41C58.35 10.62 58.88 10.725 59.45 10.725C60.01 10.725 60.535 10.62 61.025 10.41C61.515 10.19 61.94 9.89 62.3 9.51C62.66 9.13 62.945 8.695 63.155 8.205C63.365 7.705 63.47 7.165 63.47 6.585C63.47 6.015 63.365 5.48 63.155 4.98C62.945 4.47 62.655 4.025 62.285 3.645C61.915 3.265 61.485 2.97 60.995 2.76C60.505 2.54 59.98 2.43 59.42 2.43C58.85 2.43 58.32 2.54 57.83 2.76C57.34 2.98 56.91 3.28 56.54 3.66C56.17 4.04 55.885 4.485 55.685 4.995C55.485 5.495 55.385 6.03 55.385 6.6ZM76.9613 12.345L68.5763 3.84L68.9963 3.945L69.0263 12H67.5713V0.824999H67.6463L75.9413 9.36L75.5963 9.285L75.5663 1.155H77.0063V12.345H76.9613ZM80.275 1.155H81.73V10.605H87.235V12H80.275V1.155ZM91.4789 8.385L87.4589 1.155H89.2439L92.4689 7.14L92.0189 7.17L95.2139 1.155H96.9839L92.9339 8.385V12H91.4789V8.385Z" fill="white"/>
</svg>
